<svg xmlns="http://www.w3.org/2000/svg" width="23" height="21" viewBox="0 0 23 21">
    <path fill="#1F2344" fill-rule="evenodd" d="M20.439 9.519C20.439 4.263 16.04 0 10.617 0 5.187 0 .789 4.263.789 9.519s4.397 9.519 9.821 9.519c1.97 0 3.804-.563 5.34-1.526l.446-.3L20.41 21l2.176-2.144-4.006-3.787.323-.444a9.268 9.268 0 0 0 1.537-5.106zM16.119 4.2c1.466 1.419 2.273 3.306 2.273 5.312 0 2.007-.807 3.894-2.273 5.313-1.466 1.419-3.416 2.2-5.49 2.2-2.072 0-4.022-.781-5.488-2.2-1.466-1.419-2.273-3.306-2.273-5.313 0-2.006.807-3.893 2.273-5.312C6.607 2.781 8.557 2 10.63 2s4.023.781 5.489 2.2z"/>
</svg>
